<?xml version="1.0" encoding="UTF-8" standalone="no"?>
<!-- Created with Inkscape (http://www.inkscape.org/) -->

<svg
   width="19.999985mm"
   height="24.100319mm"
   viewBox="0 0 19.999984 24.100319"
   version="1.1"
   id="svg20096"
   xml:space="preserve"
   inkscape:version="1.2.2 (b0a8486541, 2022-12-01)"
   sodipodi:docname="white_light.svg"
   xmlns:inkscape="http://www.inkscape.org/namespaces/inkscape"
   xmlns:sodipodi="http://sodipodi.sourceforge.net/DTD/sodipodi-0.dtd"
   xmlns="http://www.w3.org/2000/svg"
   xmlns:svg="http://www.w3.org/2000/svg"><sodipodi:namedview
     id="namedview20098"
     pagecolor="#ffffff"
     bordercolor="#666666"
     borderopacity="1.0"
     inkscape:showpageshadow="2"
     inkscape:pageopacity="0.0"
     inkscape:pagecheckerboard="0"
     inkscape:deskcolor="#d1d1d1"
     inkscape:document-units="mm"
     showgrid="false"
     inkscape:zoom="6.3286195"
     inkscape:cx="53.645191"
     inkscape:cy="61.308789"
     inkscape:window-width="1920"
     inkscape:window-height="1008"
     inkscape:window-x="0"
     inkscape:window-y="0"
     inkscape:window-maximized="1"
     inkscape:current-layer="layer1" /><defs
     id="defs20093" /><g
     inkscape:label="Layer 1"
     inkscape:groupmode="layer"
     id="layer1"
     transform="translate(80.580212,-48.381576)"><path
       style="fill:#c8c8c8;stroke-width:0.0125172"
       d="m -69.278111,72.227719 c 0,-0.0026 0.0099,-0.01245 0.02191,-0.02191 0.01985,-0.01557 0.02029,-0.01513 0.0047,0.0047 -0.01635,0.02085 -0.02663,0.02748 -0.02663,0.01718 z m -2.642729,-0.0297 c -0.01557,-0.01985 -0.01513,-0.0203 0.0047,-0.0047 0.01205,0.0095 0.02191,0.01931 0.02191,0.02191 0,0.0103 -0.01028,0.0037 -0.02663,-0.01718 z m 2.755384,-0.09548 c 0,-0.0026 0.0099,-0.01245 0.02191,-0.02191 0.01985,-0.01557 0.0203,-0.01513 0.0047,0.0047 -0.01635,0.02085 -0.02663,0.02748 -0.02663,0.01718 z m -2.868039,-0.0297 c -0.01557,-0.01985 -0.01513,-0.0203 0.0047,-0.0047 0.01205,0.0095 0.02191,0.01931 0.02191,0.02191 0,0.0103 -0.01028,0.0037 -0.02663,-0.01718 z m 2.980695,-0.09548 c 0,-0.0026 0.0099,-0.01245 0.0219,-0.02191 0.01985,-0.01557 0.0203,-0.01513 0.0047,0.0047 -0.01635,0.02085 -0.02663,0.02748 -0.02663,0.01718 z m -3.093351,-0.0297 c -0.01557,-0.01985 -0.01513,-0.0203 0.0047,-0.0047 0.01205,0.0095 0.0219,0.01931 0.0219,0.0219 0,0.0103 -0.01028,0.0037 -0.02663,-0.01718 z m 3.206005,-0.09548 c 0,-0.0026 0.0099,-0.01245 0.02191,-0.02191 0.01985,-0.01557 0.0203,-0.01513 0.0047,0.0047 -0.01635,0.02085 -0.02663,0.02748 -0.02663,0.01718 z m -3.31866,-0.0297 c -0.01557,-0.01985 -0.01513,-0.0203 0.0047,-0.0047 0.01205,0.0095 0.02191,0.01931 0.02191,0.0219 0,0.0103 -0.01028,0.0037 -0.02663,-0.01718 z m 3.616726,-0.387195 c 0.009,-0.0036 0.01983,-0.0032 0.02399,0.001 0.0042,0.0042 -0.0032,0.0071 -0.01643,0.0066 -0.01458,-6.43e-4 -0.01755,-0.0036 -0.0076,-0.0076 z m -3.892855,-0.938793 c 0.009,-0.0036 0.01983,-0.0032 0.02399,10e-4 0.0042,0.0042 -0.0032,0.0071 -0.01643,0.0066 -0.01458,-6.43e-4 -0.01755,-0.0036 -0.0076,-0.0076 z m 3.892855,0 c 0.009,-0.0036 0.01983,-0.0032 0.02399,10e-4 0.0042,0.0042 -0.0032,0.0071 -0.01643,0.0066 -0.01458,-6.43e-4 -0.01755,-0.0036 -0.0076,-0.0076 z m 0.906744,-0.736223 c 1.29e-4,-0.02754 0.0027,-0.03733 0.0057,-0.02176 0.003,0.01557 0.0029,0.0381 -2.57e-4,0.05007 -0.0031,0.01196 -0.0056,-7.72e-4 -0.0054,-0.02831 z m -5.57332,-0.323915 c 0,-0.0026 0.0099,-0.01245 0.02191,-0.02191 0.01985,-0.01557 0.0203,-0.01513 0.0047,0.0047 -0.01635,0.02085 -0.02663,0.02748 -0.02663,0.01718 z m 1.293407,-0.455281 c 0.797428,-0.0018 2.098594,-0.0018 2.891478,10e-7 0.792884,0.0018 0.140441,0.0032 -1.449872,0.0032 -1.590313,0 -2.239035,-0.0015 -1.441606,-0.0032 z m 4.619791,-0.807362 -0.02384,-0.02816 0.02816,0.02385 c 0.02647,0.02241 0.03386,0.03248 0.02384,0.03248 -0.0024,0 -0.01505,-0.01267 -0.02816,-0.02816 z m -6.772443,-1.692954 c -3.7e-5,-0.06196 0.0021,-0.08889 0.0047,-0.05984 0.0026,0.02905 0.0027,0.07975 7.6e-5,0.112656 -0.0026,0.03291 -0.0047,0.0091 -0.0048,-0.05282 z m 7.172495,-0.03755 c 0,-0.06884 0.0021,-0.09541 0.0047,-0.05904 0.0025,0.03637 0.0025,0.0927 0,0.125172 -0.0026,0.03247 -0.0046,0.0027 -0.0046,-0.06614 z m -7.187478,-0.306672 c 0,-0.01721 0.0028,-0.02425 0.0063,-0.01565 0.0035,0.0086 0.0035,0.02269 0,0.03129 -0.0035,0.0086 -0.0063,0.0016 -0.0063,-0.01565 z m 7.1974,-0.02504 c 0,-0.01721 0.0028,-0.02425 0.0063,-0.01565 0.0035,0.0086 0.0035,0.02269 0,0.03129 -0.0035,0.0086 -0.0063,0.0016 -0.0063,-0.01565 z m 0.01153,-0.14499 c 6.43e-4,-0.01458 0.0036,-0.01755 0.0076,-0.0076 0.0036,0.009 0.0032,0.01983 -0.001,0.02399 -0.0042,0.0042 -0.0071,-0.0032 -0.0066,-0.01643 z m 1.2257,-2.813799 c 0,-0.0026 0.0099,-0.01245 0.02191,-0.02191 0.01985,-0.01557 0.0203,-0.01513 0.0047,0.0047 -0.01635,0.02085 -0.02663,0.02748 -0.02663,0.01718 z m -9.727476,-0.05473 c -0.01557,-0.01985 -0.01513,-0.02029 0.0047,-0.0047 0.02085,0.01635 0.02748,0.02663 0.01718,0.02663 -0.0026,0 -0.01246,-0.0099 -0.02191,-0.02191 z m 9.877683,-0.107994 c 0,-0.0026 0.0099,-0.01245 0.0219,-0.0219 0.01985,-0.01557 0.0203,-0.01513 0.0047,0.0047 -0.01635,0.02085 -0.02663,0.02748 -0.02663,0.01718 z m 0.112655,-0.125172 c 0,-0.0026 0.0099,-0.01245 0.0219,-0.02191 0.01985,-0.01557 0.0203,-0.01513 0.0047,0.0047 -0.01635,0.02085 -0.02663,0.02748 -0.02663,0.01718 z m -10.228161,-0.0297 c -0.01557,-0.01985 -0.01513,-0.0203 0.0047,-0.0047 0.01205,0.0095 0.02191,0.01931 0.02191,0.0219 0,0.0103 -0.01028,0.0037 -0.02663,-0.01718 z m 11.480874,-0.698877 c 6.44e-4,-0.01458 0.0036,-0.01755 0.0076,-0.0076 0.0036,0.009 0.0032,0.01983 -0.001,0.02399 -0.0042,0.0042 -0.0071,-0.0032 -0.0066,-0.01643 z m -13.105528,-2.979099 c 6.05e-4,-0.01458 0.0036,-0.01755 0.0076,-0.0076 0.0036,0.009 0.0032,0.01983 -9.9e-4,0.02399 -0.0042,0.0042 -0.0071,-0.0032 -0.0066,-0.01643 z m 13.506079,-0.01252 c 6.43e-4,-0.01458 0.0036,-0.01755 0.0076,-0.0076 0.0036,0.009 0.0032,0.01983 -10e-4,0.02399 -0.0042,0.0042 -0.0071,-0.0032 -0.0066,-0.01643 z m -13.531113,-0.250344 c 6.04e-4,-0.01458 0.0036,-0.01755 0.0076,-0.0076 0.0036,0.009 0.0032,0.01983 -9.91e-4,0.02399 -0.0042,0.0042 -0.0071,-0.0032 -0.0066,-0.01643 z m 13.556148,-0.02504 c 6.43e-4,-0.01458 0.0036,-0.01755 0.0076,-0.0076 0.0036,0.009 0.0032,0.01983 -0.001,0.02399 -0.0042,0.0042 -0.0071,-0.0032 -0.0066,-0.01643 z m -11.632614,-0.06412 c 0.01549,-0.003 0.04084,-0.003 0.05633,0 0.01549,0.003 0.0028,0.0054 -0.02816,0.0054 -0.03098,0 -0.04365,-0.0024 -0.02816,-0.0054 z m -1.934136,-0.116339 c 0,-0.0241 0.0026,-0.03395 0.0057,-0.0219 0.0031,0.01205 0.0031,0.03176 0,0.04381 -0.0031,0.01205 -0.0057,0.0022 -0.0057,-0.02191 z m 13.581184,-0.03755 c 0,-0.0241 0.0026,-0.03395 0.0057,-0.02191 0.0032,0.01205 0.0032,0.03176 0,0.04381 -0.0032,0.01205 -0.0057,0.0022 -0.0057,-0.02191 z m -16.052166,-0.10948 c 0.325813,-0.0019 0.855291,-0.0019 1.176619,2e-6 0.321327,0.0019 0.05475,0.0034 -0.592387,0.0034 -0.64714,-10e-7 -0.910045,-0.0015 -0.584232,-0.0034 z m 17.361383,0 c 0.325813,-0.0019 0.855291,-0.0019 1.176618,2e-6 0.321328,0.0019 0.05475,0.0034 -0.592386,0.0034 -0.64714,-10e-7 -0.910044,-0.0015 -0.584232,-0.0034 z m -12.376361,-0.38595 c 6.43e-4,-0.01458 0.0036,-0.01755 0.0076,-0.0076 0.0036,0.009 0.0032,0.01983 -10e-4,0.02399 -0.0042,0.0042 -0.0071,-0.0032 -0.0066,-0.01643 z m -1.100527,-0.01773 c 0,-0.01721 0.0028,-0.02425 0.0063,-0.01565 0.0035,0.0086 0.0035,0.02269 0,0.03129 -0.0035,0.0086 -0.0063,0.0016 -0.0063,-0.01565 z m 12.167666,-0.05007 c 0,-0.0241 0.0026,-0.03395 0.0057,-0.02191 0.0032,0.01205 0.0032,0.03176 0,0.04381 -0.0032,0.01205 -0.0057,0.0022 -0.0057,-0.02191 z M -77.374311,58.0567 c 2.57e-4,-0.02065 0.0031,-0.02759 0.0062,-0.01541 0.0032,0.01218 0.003,0.02908 -4.63e-4,0.03755 -0.0034,0.0085 -0.006,-0.0015 -0.0058,-0.02214 z m 1.425511,-0.05111 c 6.04e-4,-0.01458 0.0036,-0.01755 0.0076,-0.0076 0.0036,0.009 0.0032,0.01983 -9.91e-4,0.02399 -0.0042,0.0042 -0.0071,-0.0032 -0.0066,-0.01643 z m 1.078396,-0.0678 c 0,-0.0241 0.0026,-0.03395 0.0057,-0.0219 0.0032,0.01205 0.0032,0.03176 0,0.04381 -0.0032,0.01205 -0.0057,0.0022 -0.0057,-0.02191 z m -1.065879,-0.04485 c 6.04e-4,-0.01458 0.0036,-0.01755 0.0076,-0.0076 0.0036,0.009 0.0032,0.01983 -9.91e-4,0.02399 -0.0042,0.0042 -0.0071,-0.0032 -0.0066,-0.01643 z m 12.129185,-0.02503 c 6.43e-4,-0.01458 0.0036,-0.01755 0.0076,-0.0076 0.0036,0.009 0.0032,0.01983 -10e-4,0.02399 -0.0042,0.0042 -0.0071,-0.0032 -0.0066,-0.01643 z m -13.556148,-0.02503 c 6.04e-4,-0.01458 0.0036,-0.01755 0.0076,-0.0076 0.0036,0.009 0.0032,0.01983 -9.91e-4,0.02399 -0.0042,0.0042 -0.0071,-0.0032 -0.0066,-0.01643 z m 1.43948,-0.05007 c 6.05e-4,-0.01458 0.0036,-0.01755 0.0076,-0.0076 0.0036,0.009 0.0032,0.01983 -9.91e-4,0.02399 -0.0042,0.0042 -0.0071,-0.0032 -0.0066,-0.01643 z m 1.053362,-0.330664 c 0,-0.0241 0.0026,-0.03395 0.0057,-0.02191 0.0032,0.01205 0.0032,0.03176 0,0.04381 -0.0032,0.01205 -0.0057,0.0022 -0.0057,-0.0219 z m 0.0106,-0.207577 c 6.43e-4,-0.01458 0.0036,-0.01755 0.0076,-0.0076 0.0036,0.009 0.0032,0.01983 -0.001,0.02399 -0.0042,0.0042 -0.0071,-0.0032 -0.0066,-0.01643 z m 0.01251,-0.13769 c 6.43e-4,-0.01458 0.0036,-0.01755 0.0076,-0.0076 0.0036,0.009 0.0032,0.01983 -0.001,0.02399 -0.0042,0.0042 -0.0071,-0.0032 -0.0066,-0.01643 z m -2.268947,-2.341968 c 0.009,-0.0036 0.01983,-0.0032 0.02399,9.9e-4 0.0042,0.0042 -0.0032,0.0071 -0.01643,0.0066 -0.01458,-6.05e-4 -0.01755,-0.0036 -0.0076,-0.0076 z m 13.055459,0 c 0.009,-0.0036 0.01983,-0.0032 0.02399,9.9e-4 0.0042,0.0042 -0.0032,0.0071 -0.01643,0.0066 -0.01458,-6.05e-4 -0.01755,-0.0036 -0.0076,-0.0076 z m -10.4996,-0.04624 c 0,-0.0026 0.0099,-0.01246 0.02191,-0.02191 0.01985,-0.01557 0.0203,-0.01513 0.0047,0.0047 -0.01635,0.02085 -0.02663,0.02748 -0.02663,0.01718 z M -64.232684,54.6009 c 6.44e-4,-0.01458 0.0036,-0.01755 0.0076,-0.0076 0.0036,0.009 0.0032,0.01983 -0.001,0.02399 -0.0042,0.0042 -0.0071,-0.0032 -0.0066,-0.01643 z m -9.451488,-0.11008 c 0,-0.0026 0.0099,-0.01246 0.02191,-0.0219 0.01985,-0.01557 0.0203,-0.01513 0.0047,0.0047 -0.01635,0.02085 -0.02663,0.02748 -0.02663,0.01718 z M -74.23493,54.4032 c 0,-0.0026 0.0099,-0.01246 0.02191,-0.02191 0.01985,-0.01557 0.0203,-0.01513 0.0047,0.0047 -0.01635,0.02085 -0.02663,0.02748 -0.02663,0.01718 z m 0.876206,-0.237827 c 0,-0.0026 0.0099,-0.01246 0.0219,-0.02191 0.01985,-0.01557 0.0203,-0.01513 0.0047,0.0047 -0.01635,0.02085 -0.02663,0.02748 -0.02663,0.01718 z m -2.328203,-0.287897 c 0,-0.0026 0.0099,-0.01246 0.02191,-0.02191 0.01985,-0.01557 0.0203,-0.01513 0.0047,0.0047 -0.01635,0.02085 -0.02663,0.02748 -0.02663,0.01718 z m 10.081431,-0.111058 -0.02385,-0.02816 0.02816,0.02385 c 0.02647,0.02241 0.03386,0.03248 0.02385,0.03248 -0.0024,0 -0.01505,-0.01267 -0.02816,-0.02816 z m -9.937483,-0.04694 c 0.01246,-0.01377 0.02547,-0.02504 0.02891,-0.02504 0.0034,0 -0.0039,0.01127 -0.0164,0.02504 -0.01246,0.01377 -0.02547,0.02503 -0.02892,0.02503 -0.0034,0 0.0039,-0.01127 0.0164,-0.02503 z m 0.300413,-0.300414 c 0.01246,-0.01377 0.02547,-0.02503 0.02891,-0.02503 0.0034,0 -0.0039,0.01127 -0.0164,0.02503 -0.01246,0.01377 -0.02547,0.02503 -0.02891,0.02503 -0.0034,0 0.0039,-0.01127 0.0164,-0.02503 z m 9.249036,-0.04068 -0.02385,-0.02816 0.02817,0.02385 c 0.02647,0.02241 0.03386,0.03248 0.02384,0.03248 -0.0024,0 -0.01505,-0.01267 -0.02816,-0.02816 z m -3.900272,-1.770349 c 0.009,-0.0036 0.01983,-0.0032 0.02399,9.91e-4 0.0042,0.0042 -0.0032,0.0071 -0.01643,0.0066 -0.01458,-6.04e-4 -0.01755,-0.0036 -0.0076,-0.0076 z m -1.265021,-0.01226 c 0.0086,-0.0035 0.02269,-0.0035 0.03129,0 0.0086,0.0035 0.0016,0.0063 -0.01565,0.0063 -0.01721,0 -0.02425,-0.0028 -0.01565,-0.0063 z m 1.127332,-2.57e-4 c 0.009,-0.0036 0.01983,-0.0032 0.02399,9.9e-4 0.0042,0.0042 -0.0032,0.0071 -0.01643,0.0066 -0.01458,-6.05e-4 -0.01755,-0.0036 -0.0076,-0.0076 z m -0.939574,-0.01226 c 0.0086,-0.0035 0.02269,-0.0035 0.03129,0 0.0086,0.0035 0.0016,0.0063 -0.01565,0.0063 -0.01721,0 -0.02425,-0.0028 -0.01565,-0.0063 z m 0.745012,-3.86e-4 c 0.01218,-0.0032 0.02908,-0.003 0.03755,4.63e-4 0.0085,0.0034 -0.0015,0.006 -0.02214,0.0058 -0.02065,-2.57e-4 -0.02759,-0.0031 -0.01541,-0.0062 z m -0.368713,-0.575668 c 0.009,-0.0036 0.01983,-0.0032 0.02399,9.9e-4 0.0042,0.0042 -0.0032,0.0071 -0.01643,0.0066 -0.01458,-6.04e-4 -0.01755,-0.0036 -0.0076,-0.0076 z m -0.122825,-2.574723 c 0,-0.0026 0.0099,-0.01246 0.02191,-0.0219 0.01985,-0.01557 0.0203,-0.01513 0.0047,0.0047 -0.01635,0.02085 -0.02663,0.02748 -0.02663,0.01718 z"
       id="path20289" /><path
       style="fill:#f9f9f9;stroke-width:0.0125172"
       d="m -73.187409,67.331021 c -0.222621,-0.05392 -0.444954,-0.236222 -0.545812,-0.447551 -0.06662,-0.139586 -0.07724,-0.203178 -0.08921,-0.534118 -0.01663,-0.459612 -0.0584,-0.769299 -0.157203,-1.165361 -0.224229,-0.89887 -0.6445,-1.671353 -1.306836,-2.402046 -0.294299,-0.32467 -0.478363,-0.558862 -0.680171,-0.865402 -0.572932,-0.870266 -0.913442,-1.825055 -1.030586,-2.889763 -0.03233,-0.293816 -0.03233,-1.020494 0,-1.314308 0.130589,-1.18691 0.542341,-2.246828 1.234114,-3.176819 0.447463,-0.60155 1.012704,-1.137075 1.634582,-1.548652 0.979081,-0.647982 2.130169,-1.01676 3.29449,-1.055467 1.113779,-0.03703 2.136763,0.181679 3.097338,0.662186 0.279902,0.140014 0.427893,0.226104 0.699177,0.406724 1.103279,0.734561 1.974606,1.802969 2.449632,3.003704 0.324816,0.821047 0.469769,1.628497 0.450491,2.509425 -0.01001,0.457436 -0.05318,0.824457 -0.147791,1.256383 -0.238839,1.090413 -0.790127,2.147329 -1.544935,2.96192 -0.175997,0.189936 -0.325527,0.365189 -0.433089,0.507586 -0.503901,0.667107 -0.844129,1.445989 -0.992106,2.271237 -0.0501,0.279377 -0.06995,0.478401 -0.08242,0.826137 -0.01397,0.389459 -0.02915,0.45849 -0.139162,0.63268 -0.07338,0.116183 -0.202264,0.231647 -0.326436,0.292438 -0.196472,0.09619 0.03471,0.08889 -2.782312,0.08773 -2.129086,-9.01e-4 -2.540484,-0.0038 -2.601748,-0.01867 z m -2.13026,-8.529382 c 0.212896,-0.03459 0.395028,-0.199084 0.450627,-0.406979 0.01792,-0.06703 0.01846,-0.110108 0.0049,-0.400552 -0.04271,-0.917401 0.111697,-1.718402 0.471582,-2.446331 0.233322,-0.47193 0.51017,-0.856976 0.887388,-1.234195 0.289088,-0.289087 0.586134,-0.519348 0.920481,-0.713529 0.146463,-0.08506 0.171228,-0.117365 0.136888,-0.178545 -0.03494,-0.06225 -0.07005,-0.06272 -0.226952,-0.003 -0.912687,0.347178 -1.781553,1.054985 -2.3607,1.923104 -0.465529,0.697812 -0.769429,1.547888 -0.892337,2.496065 -0.03902,0.301036 -0.0445,0.466933 -0.01838,0.55677 0.03058,0.105206 0.0589,0.155658 0.132603,0.236305 0.09193,0.100588 0.253167,0.176249 0.387472,0.181824 0.01721,7.72e-4 0.06509,-0.0042 0.106396,-0.01091 z"
       id="path20287" /><path
       style="fill:#949494;stroke-width:0.0125172"
       d="m -71.863704,72.25435 -0.03676,-0.04068 0.04068,0.03676 c 0.02238,0.02022 0.04068,0.03853 0.04068,0.04068 0,0.0097 -0.01033,0.0012 -0.0446,-0.03677 z m 2.548042,0.0094 c 0.01617,-0.01721 0.03221,-0.03129 0.03566,-0.03129 0.0034,0 -0.007,0.01408 -0.02314,0.03129 -0.01617,0.01721 -0.03221,0.03129 -0.03566,0.03129 -0.0034,0 0.007,-0.01408 0.02314,-0.03129 z m 0.112655,-0.123641 c 0,-0.0026 0.0099,-0.01245 0.02191,-0.0219 0.01985,-0.01557 0.02029,-0.01513 0.0047,0.0047 -0.01635,0.02085 -0.02663,0.02748 -0.02663,0.01718 z m -2.349125,-0.705624 c 0.53581,-0.0018 1.408886,-0.0018 1.940169,0 0.531285,0.0018 0.0929,0.0033 -0.974197,0.0033 -1.067093,0 -1.501779,-0.0015 -0.965972,-0.0033 z m 0.0053,-0.938791 c 0.531825,-0.0018 1.402085,-0.0018 1.93391,0 0.531825,0.0018 0.0967,0.0033 -0.966955,0.0033 -1.063651,0 -1.498781,-0.0015 -0.966955,-0.0033 z m -1.884531,-0.735388 c 2.57e-4,-0.02065 0.0031,-0.02759 0.0062,-0.01541 0.0032,0.01218 0.003,0.02908 -5.15e-4,0.03755 -0.0034,0.0085 -0.006,-0.0015 -0.0058,-0.02214 z m 5.352583,-2.067633 c 0.009,-0.0036 0.01983,-0.0032 0.02399,0.001 0.0042,0.0042 -0.0032,0.0071 -0.01643,0.0066 -0.01458,-6.44e-4 -0.01755,-0.0036 -0.0076,-0.0076 z m -5.707102,-0.30125 c -0.01557,-0.01985 -0.01513,-0.0203 0.0047,-0.0047 0.02085,0.01635 0.02748,0.02663 0.01718,0.02663 -0.0026,0 -0.01245,-0.0099 -0.02191,-0.02191 z m 6.410413,-0.007 c 0,-0.0022 0.01831,-0.02046 0.04068,-0.04068 l 0.04068,-0.03676 -0.03677,0.04068 c -0.03427,0.03792 -0.0446,0.04644 -0.0446,0.03676 z m -6.485516,-0.06806 c -0.01557,-0.01985 -0.01513,-0.0203 0.0047,-0.0047 0.02085,0.01635 0.02748,0.02663 0.01718,0.02663 -0.0026,0 -0.01245,-0.0099 -0.02191,-0.02191 z m -0.307924,-0.99199 c 0,-0.03098 0.0024,-0.04365 0.0054,-0.02816 0.003,0.01549 0.003,0.04084 0,0.05633 -0.003,0.01549 -0.0054,0.0028 -0.0054,-0.02816 z m 7.171861,-0.03755 c 0,-0.0241 0.0026,-0.03395 0.0057,-0.02191 0.0032,0.01205 0.0032,0.03176 0,0.04381 -0.0032,0.01205 -0.0057,0.0022 -0.0057,-0.02191 z m -7.1868,-0.195059 c 6.43e-4,-0.01458 0.0036,-0.01755 0.0076,-0.0076 0.0036,0.009 0.0032,0.01983 -0.001,0.02399 -0.0042,0.0042 -0.0071,-0.0032 -0.0066,-0.01643 z m 7.1974,-0.02504 c 6.43e-4,-0.01458 0.0036,-0.01755 0.0076,-0.0076 0.0036,0.009 0.0032,0.01983 -0.001,0.02399 -0.0042,0.0042 -0.0071,-0.0032 -0.0066,-0.01643 z m -12.277938,-2.777779 c 2.58e-4,-0.02065 0.0031,-0.02759 0.0062,-0.01541 0.0032,0.01218 0.003,0.02908 -4.63e-4,0.03755 -0.0034,0.0085 -0.006,-0.0015 -0.0058,-0.02214 z m 17.359931,-10e-4 c 6.43e-4,-0.01458 0.0036,-0.01755 0.0076,-0.0076 0.0036,0.009 0.0032,0.01983 -10e-4,0.02399 -0.0042,0.0042 -0.0071,-0.0032 -0.0066,-0.01643 z m -3.724861,-0.268082 c 0.01246,-0.01377 0.02547,-0.02503 0.02892,-0.02503 0.0034,0 -0.0039,0.01127 -0.0164,0.02503 -0.01246,0.01377 -0.02547,0.02504 -0.02892,0.02504 -0.0034,0 0.0039,-0.01127 0.0164,-0.02504 z m -9.93986,-0.02816 -0.02384,-0.02816 0.02816,0.02384 c 0.02647,0.02241 0.03386,0.03248 0.02385,0.03248 -0.0024,0 -0.01505,-0.01267 -0.02816,-0.02816 z m -1.781527,-3.984659 c 6.05e-4,-0.01458 0.0036,-0.01755 0.0076,-0.0076 0.0036,0.009 0.0032,0.01983 -9.9e-4,0.02399 -0.0042,0.0042 -0.0071,-0.0032 -0.0066,-0.01643 z m 13.531113,-0.01252 c 6.43e-4,-0.01458 0.0036,-0.01755 0.0076,-0.0076 0.0036,0.009 0.0032,0.01983 -10e-4,0.02399 -0.0042,0.0042 -0.0071,-0.0032 -0.0066,-0.01643 z M -77.362232,58.85162 c 0,-0.01721 0.0028,-0.02425 0.0063,-0.01565 0.0035,0.0086 0.0035,0.02269 0,0.03129 -0.0035,0.0086 -0.0063,0.0016 -0.0063,-0.01565 z m 13.556149,-0.02504 c 0,-0.01721 0.0028,-0.02425 0.0063,-0.01565 0.0035,0.0086 0.0035,0.02269 0,0.03129 -0.0035,0.0086 -0.0063,0.0016 -0.0063,-0.01565 z m -13.567486,-0.219052 c 1.41e-4,-0.02754 0.0027,-0.03733 0.0057,-0.02176 0.003,0.01557 0.0029,0.0381 -2.58e-4,0.05007 -0.0031,0.01196 -0.0056,-7.72e-4 -0.0054,-0.02831 z m 13.581606,-0.05007 c 1.25e-4,-0.03442 0.0025,-0.04702 0.0054,-0.02799 0.0029,0.01903 0.0028,0.04719 -1.29e-4,0.06259 -0.003,0.0154 -0.0053,-1.28e-4 -0.0052,-0.03459 z m 3.138242,-0.04854 c 0,-0.0026 0.0099,-0.01245 0.02191,-0.02191 0.01985,-0.01557 0.0203,-0.01513 0.0047,0.0047 -0.01635,0.02085 -0.02663,0.02748 -0.02663,0.01718 z m -2.563591,-0.139222 c 2.57e-4,-0.02065 0.0031,-0.02759 0.0062,-0.01541 0.0032,0.01218 0.003,0.02908 -5.14e-4,0.03755 -0.0034,0.0085 -0.006,-0.0015 -0.0058,-0.02214 z m 2.628617,0 c 2.58e-4,-0.02065 0.0031,-0.02759 0.0062,-0.01541 0.0032,0.01218 0.003,0.02908 -5.14e-4,0.03755 -0.0034,0.0085 -0.006,-0.0015 -0.0058,-0.02214 z m -17.362835,-10e-4 c 6.05e-4,-0.01458 0.0036,-0.01755 0.0076,-0.0076 0.0036,0.009 0.0032,0.01983 -9.9e-4,0.02399 -0.0042,0.0042 -0.0071,-0.0032 -0.0066,-0.01643 z m 14.159738,-0.180471 c 0,-0.03786 0.0023,-0.05335 0.0052,-0.03442 0.0029,0.01893 0.0029,0.04991 0,0.06885 -0.0029,0.01893 -0.0052,0.0034 -0.0052,-0.03442 z m -13.581524,-0.05007 c 0,-0.03098 0.0024,-0.04365 0.0054,-0.02816 0.003,0.01549 0.003,0.04084 0,0.05633 -0.003,0.01549 -0.0054,0.0028 -0.0054,-0.02816 z m 13.567233,-0.22531 c 0,-0.01721 0.0028,-0.02425 0.0063,-0.01565 0.0035,0.0086 0.0035,0.02269 0,0.03129 -0.0035,0.0086 -0.0063,0.0016 -0.0063,-0.01565 z m -13.556149,-0.02503 c 0,-0.01721 0.0028,-0.02425 0.0063,-0.01565 0.0035,0.0086 0.0035,0.02269 0,0.03129 -0.0035,0.0086 -0.0063,0.0016 -0.0063,-0.01565 z M -63.81959,57.75534 c 6.43e-4,-0.01458 0.0036,-0.01755 0.0076,-0.0076 0.0036,0.009 0.0032,0.01983 -10e-4,0.02399 -0.0042,0.0042 -0.0071,-0.0032 -0.0066,-0.01643 z m -13.531113,-0.02503 c 6.05e-4,-0.01458 0.0036,-0.01755 0.0076,-0.0076 0.0036,0.009 0.0032,0.01983 -9.9e-4,0.02399 -0.0042,0.0042 -0.0071,-0.0032 -0.0066,-0.01643 z m 13.518596,-0.100139 c 6.43e-4,-0.01458 0.0036,-0.01755 0.0076,-0.0076 0.0036,0.009 0.0032,0.01983 -0.001,0.02399 -0.0042,0.0042 -0.0071,-0.0032 -0.0066,-0.01643 z m -1.823432,-3.913717 -0.02385,-0.02816 0.02816,0.02385 c 0.02647,0.02241 0.03386,0.03248 0.02384,0.03248 -0.0024,0 -0.01505,-0.01267 -0.02816,-0.02816 z m -9.806575,-0.0751 c 0.05187,-0.05527 0.06311,-0.0652 0.06311,-0.0558 0,0.002 -0.02675,0.02876 -0.05946,0.05946 l -0.05946,0.0558 z m 0.13769,-0.137689 c 0.05187,-0.05527 0.06311,-0.0652 0.06311,-0.0558 0,0.002 -0.02675,0.02876 -0.05946,0.05946 l -0.05946,0.0558 z m -3.940425,-0.04694 c 0,-0.01721 0.0028,-0.02425 0.0063,-0.01565 0.0035,0.0086 0.0035,0.02269 0,0.03129 -0.0035,0.0086 -0.0063,0.0016 -0.0063,-0.01565 z m 13.321415,-0.02816 -0.02385,-0.02816 0.02816,0.02385 c 0.02647,0.02241 0.03386,0.03248 0.02385,0.03248 -0.0024,0 -0.01505,-0.01267 -0.02816,-0.02816 z m 3.986325,-0.09388 c -0.01557,-0.01985 -0.01513,-0.0203 0.0047,-0.0047 0.01205,0.0094 0.0219,0.0193 0.0219,0.0219 0,0.0103 -0.01028,0.0037 -0.02663,-0.01718 z m -13.179035,-0.0079 c 0,-0.0026 0.0099,-0.01246 0.02191,-0.0219 0.01985,-0.01557 0.0203,-0.01513 0.0047,0.0047 -0.01635,0.02085 -0.02663,0.02748 -0.02663,0.01718 z m 8.151149,-1.478564 c 2.58e-4,-0.02065 0.0031,-0.02759 0.0062,-0.01541 0.0032,0.01218 0.003,0.02908 -5.15e-4,0.03755 -0.0034,0.0085 -0.006,-0.0015 -0.0058,-0.02214 z m -7.198852,-0.001 c 6.43e-4,-0.01458 0.0036,-0.01755 0.0076,-0.0076 0.0036,0.009 0.0032,0.01983 -10e-4,0.02399 -0.0042,0.0042 -0.0071,-0.0032 -0.0066,-0.01643 z m 2.925695,-0.239076 c 0.009,-0.0036 0.01983,-0.0032 0.02399,9.9e-4 0.0042,0.0042 -0.0032,0.0071 -0.01643,0.0066 -0.01458,-6.04e-4 -0.01755,-0.0036 -0.0076,-0.0076 z m 0.150206,-0.01252 c 0.009,-0.0036 0.01983,-0.0032 0.02399,9.91e-4 0.0042,0.0042 -0.0032,0.0071 -0.01643,0.0066 -0.01458,-6.05e-4 -0.01755,-0.0036 -0.0076,-0.0076 z m 1.038929,0 c 0.009,-0.0036 0.01983,-0.0032 0.02399,9.91e-4 0.0042,0.0042 -0.0032,0.0071 -0.01643,0.0066 -0.01458,-6.05e-4 -0.01755,-0.0036 -0.0076,-0.0076 z m -0.845694,-0.01259 c 0.01205,-0.0031 0.03176,-0.0031 0.04381,0 0.01205,0.0031 0.0022,0.0057 -0.0219,0.0057 -0.0241,0 -0.03395,-0.0026 -0.02191,-0.0057 z m 0.626098,-5e-5 c 0.01218,-0.0032 0.02908,-0.003 0.03755,4.63e-4 0.0085,0.0034 -0.0015,0.006 -0.02214,0.0058 -0.02065,-2.57e-4 -0.02759,-0.0031 -0.01541,-0.0062 z m -0.460497,-1.893941 c 0,-0.650582 0.0015,-0.91673 0.0034,-0.591438 0.0019,0.325291 0.0019,0.857586 0,1.182877 -0.0019,0.325291 -0.0034,0.05914 -0.0034,-0.591439 z m 0.337965,0.0063 c 1e-6,-0.64714 0.0015,-0.910045 0.0034,-0.584232 0.0019,0.325813 0.0019,0.855291 -10e-7,1.176618 -0.0019,0.321328 -0.0034,0.05475 -0.0034,-0.592386 z"
       id="path20285" /><path
       style="fill:#caa700;stroke-width:0.0125172"
       d="m -71.815978,67.35386 c 0.679843,-0.0018 1.792311,-0.0018 2.472152,0 0.679842,0.0018 0.123608,0.0033 -1.236075,0.0033 -1.359684,0 -1.915918,-0.0015 -1.236077,-0.0033 z m -1.732101,-0.212793 c -0.01557,-0.01985 -0.01513,-0.0203 0.0047,-0.0047 0.02085,0.01635 0.02748,0.02663 0.01718,0.02663 -0.0026,0 -0.01245,-0.0099 -0.0219,-0.02191 z m 5.922241,0.0055 c 0,-0.0022 0.01831,-0.02046 0.04068,-0.04068 l 0.04068,-0.03676 -0.03677,0.04068 c -0.03427,0.03792 -0.0446,0.04644 -0.0446,0.03677 z m -5.984827,-0.06806 c -0.01557,-0.01985 -0.01513,-0.02029 0.0047,-0.0047 0.01205,0.0095 0.0219,0.01931 0.0219,0.02191 0,0.0103 -0.01028,0.0037 -0.02663,-0.01718 z m -0.210208,-0.473568 c 6.43e-4,-0.01458 0.0036,-0.01755 0.0076,-0.0076 0.0036,0.009 0.0032,0.01983 -0.001,0.02399 -0.0042,0.0042 -0.0071,-0.0032 -0.0066,-0.01643 z m 6.471401,-0.01251 c 6.43e-4,-0.01458 0.0036,-0.01755 0.0076,-0.0076 0.0036,0.009 0.0032,0.01983 -0.001,0.02399 -0.0042,0.0042 -0.0071,-0.0032 -0.0066,-0.01643 z m -6.48293,-0.405767 c 0,-0.01721 0.0028,-0.02425 0.0063,-0.01565 0.0035,0.0086 0.0035,0.02269 0,0.03129 -0.0035,0.0086 -0.0063,0.0016 -0.0063,-0.01565 z m 6.496437,-0.02504 c 0,-0.01721 0.0028,-0.02425 0.0063,-0.01565 0.0035,0.0086 0.0035,0.02269 0,0.03129 -0.0035,0.0086 -0.0063,0.0016 -0.0063,-0.01565 z m 0.01152,-0.170025 c 6.43e-4,-0.01458 0.0036,-0.01755 0.0076,-0.0076 0.0036,0.009 0.0032,0.01983 -0.001,0.02399 -0.0042,0.0042 -0.0071,-0.0032 -0.0066,-0.01643 z m 1.438492,-3.203365 c 0.01617,-0.01721 0.03221,-0.03129 0.03566,-0.03129 0.0034,0 -0.007,0.01408 -0.02314,0.03129 -0.01617,0.01721 -0.03222,0.03129 -0.03566,0.03129 -0.0034,0 0.007,-0.01408 0.02314,-0.03129 z m -9.427062,-0.02816 c -0.01557,-0.01985 -0.01513,-0.0203 0.0047,-0.0047 0.02085,0.01635 0.02748,0.02663 0.01718,0.02663 -0.0026,0 -0.01245,-0.0099 -0.0219,-0.0219 z m -1.687236,-3.703008 c 6.05e-4,-0.01458 0.0036,-0.01755 0.0076,-0.0076 0.0036,0.009 0.0032,0.01983 -9.9e-4,0.02399 -0.0042,0.0042 -0.0071,-0.0032 -0.0066,-0.01643 z m -0.01252,-0.137689 c 6.04e-4,-0.01458 0.0036,-0.01755 0.0076,-0.0076 0.0036,0.009 0.0032,0.01983 -9.91e-4,0.02399 -0.0042,0.0042 -0.0071,-0.0032 -0.0066,-0.01643 z m 12.855183,-0.01252 c 6.43e-4,-0.01458 0.0036,-0.01755 0.0076,-0.0076 0.0036,0.009 0.0032,0.01983 -0.001,0.02399 -0.0042,0.0042 -0.0071,-0.0032 -0.0066,-0.01643 z M -77.0243,58.751432 c 0,-0.01721 0.0028,-0.02425 0.0063,-0.01565 0.0035,0.0086 0.0035,0.02269 0,0.03129 -0.0035,0.0086 -0.0063,0.0016 -0.0063,-0.01565 z m 12.880218,-0.02504 c 0,-0.01721 0.0028,-0.02425 0.0063,-0.01565 0.0035,0.0086 0.0035,0.02269 0,0.03129 -0.0035,0.0086 -0.0063,0.0016 -0.0063,-0.01564 z m -12.890961,-0.350483 c 0,-0.03786 0.0023,-0.05335 0.0052,-0.03442 0.0029,0.01893 0.0029,0.04991 0,0.06885 -0.0029,0.01893 -0.0052,0.0034 -0.0052,-0.03442 z m 12.891424,-0.356741 c 2.58e-4,-0.02065 0.0031,-0.02759 0.0062,-0.01541 0.0032,0.01218 0.003,0.02908 -5.15e-4,0.03755 -0.0034,0.0085 -0.006,-0.0015 -0.0058,-0.02214 z M -77.0243,57.987878 c 0,-0.01721 0.0028,-0.02425 0.0063,-0.01565 0.0035,0.0086 0.0035,0.02269 0,0.03129 -0.0035,0.0086 -0.0063,0.0016 -0.0063,-0.01565 z m 12.866712,-0.14499 c 6.43e-4,-0.01458 0.0036,-0.01755 0.0076,-0.0076 0.0036,0.009 0.0032,0.01983 -0.001,0.02399 -0.0042,0.0042 -0.0071,-0.0032 -0.0066,-0.01643 z m -12.855183,-0.02504 c 6.04e-4,-0.01458 0.0036,-0.01755 0.0076,-0.0076 0.0036,0.009 0.0032,0.01983 -9.9e-4,0.02399 -0.0042,0.0042 -0.0071,-0.0032 -0.0066,-0.01643 z m 12.842667,-0.112655 c 6.43e-4,-0.01458 0.0036,-0.01755 0.0076,-0.0076 0.0036,0.009 0.0032,0.01983 -0.001,0.02399 -0.0042,0.0042 -0.0071,-0.0032 -0.0066,-0.01643 z m -11.228935,-3.627418 c 0,-0.0026 0.0099,-0.01246 0.02191,-0.0219 0.01985,-0.01557 0.0203,-0.01513 0.0047,0.0047 -0.01635,0.02085 -0.02663,0.02748 -0.02663,0.01718 z m 9.487106,-0.129834 -0.03035,-0.03442 0.03442,0.03034 c 0.01893,0.01669 0.03442,0.03218 0.03442,0.03442 0,0.0098 -0.01014,0.0018 -0.0385,-0.03034 z m -9.23676,-0.13456 c 0.05821,-0.05852 0.10866,-0.106397 0.112102,-0.106397 0.0034,0 -0.04137,0.04788 -0.09959,0.106397 -0.05821,0.05852 -0.10866,0.106396 -0.112101,0.106396 -0.0034,0 0.04137,-0.04788 0.09959,-0.106396 z m 8.973898,-0.128302 -0.03035,-0.03442 0.03442,0.03035 c 0.01893,0.01669 0.03442,0.03218 0.03442,0.03442 0,0.0098 -0.01013,0.0018 -0.0385,-0.03035 z m -0.150857,-0.137689 c -0.01557,-0.01985 -0.01513,-0.0203 0.0047,-0.0047 0.01205,0.0094 0.02191,0.01931 0.02191,0.0219 0,0.0103 -0.01028,0.0037 -0.02663,-0.01718 z m -3.555639,-1.58885 c 0.009,-0.0036 0.01983,-0.0032 0.02399,9.91e-4 0.0042,0.0042 -0.0032,0.0071 -0.01643,0.0066 -0.01458,-6.05e-4 -0.01755,-0.0036 -0.0076,-0.0076 z M -71.183075,51.946 c 0.009,-0.0036 0.01983,-0.0032 0.02399,9.9e-4 0.0042,0.0042 -0.0032,0.0071 -0.01643,0.0066 -0.01458,-6.04e-4 -0.01755,-0.0036 -0.0076,-0.0076 z m 1.176619,0 c 0.009,-0.0036 0.01983,-0.0032 0.02399,9.9e-4 0.0042,0.0042 -0.0032,0.0071 -0.01643,0.0066 -0.01458,-6.04e-4 -0.01755,-0.0036 -0.0076,-0.0076 z m -1.014677,-0.01226 c 0.0086,-0.0035 0.02269,-0.0035 0.03129,0 0.0086,0.0035 0.0016,0.0063 -0.01565,0.0063 -0.01721,0 -0.02425,-0.0028 -0.01565,-0.0063 z m 0.85117,0 c 0.0086,-0.0035 0.02269,-0.0035 0.03129,0 0.0086,0.0035 0.0016,0.0063 -0.01565,0.0063 -0.01721,0 -0.02425,-0.0028 -0.01565,-0.0063 z m -0.569534,-0.01335 c 0.02582,-0.0027 0.06806,-0.0027 0.09388,0 0.02582,0.0027 0.0047,0.0049 -0.04694,0.0049 -0.05163,0 -0.07276,-0.0022 -0.04694,-0.0049 z m 0.225311,0 c 0.02582,-0.0027 0.06806,-0.0027 0.09388,0 0.02582,0.0027 0.0047,0.0049 -0.04694,0.0049 -0.05163,0 -0.07276,-0.0022 -0.04694,-0.0049 z"
       id="path20283" /><path
       style="fill:#8b7200;stroke-width:0.0125172"
       d="m -73.073175,67.354698 c 0.009,-0.0036 0.01983,-0.0032 0.02399,0.001 0.0042,0.0042 -0.0032,0.0071 -0.01643,0.0066 -0.01458,-6.43e-4 -0.01755,-0.0036 -0.0076,-0.0076 z m 4.969336,0 c 0.009,-0.0036 0.01983,-0.0032 0.02399,0.001 0.0042,0.0042 -0.0032,0.0071 -0.01643,0.0066 -0.01458,-6.43e-4 -0.01755,-0.0036 -0.0076,-0.0076 z m 0.440449,-0.171419 c 0,-0.0026 0.0099,-0.01245 0.02191,-0.0219 0.01986,-0.01557 0.0203,-0.01513 0.0047,0.0047 -0.01635,0.02085 -0.02663,0.02748 -0.02663,0.01718 z m 0.112656,-0.112654 c 0,-0.0026 0.0099,-0.01245 0.0219,-0.02191 0.01985,-0.01557 0.0203,-0.01513 0.0047,0.0047 -0.01635,0.02085 -0.02663,0.02748 -0.02663,0.01718 z m -6.280488,-0.815151 c 1.29e-4,-0.02754 0.0027,-0.03733 0.0057,-0.02176 0.003,0.01557 0.0029,0.0381 -2.57e-4,0.05007 -0.0031,0.01196 -0.0056,-7.71e-4 -0.0054,-0.02831 z m 6.496184,-0.03129 c 0,-0.0241 0.0026,-0.03395 0.0057,-0.0219 0.0032,0.01205 0.0032,0.03176 0,0.04381 -0.0032,0.01205 -0.0057,0.0022 -0.0057,-0.02191 z m -6.509882,-0.175241 c 0,-0.01721 0.0028,-0.02425 0.0063,-0.01565 0.0035,0.0086 0.0035,0.02269 0,0.03129 -0.0035,0.0086 -0.0063,0.0016 -0.0063,-0.01565 z m 6.520483,-0.01982 c 6.43e-4,-0.01458 0.0036,-0.01755 0.0076,-0.0076 0.0036,0.009 0.0032,0.01983 -10e-4,0.02399 -0.0042,0.0042 -0.0071,-0.0032 -0.0066,-0.01643 z m -6.533988,-0.112655 c 6.43e-4,-0.01458 0.0036,-0.01755 0.0076,-0.0076 0.0036,0.009 0.0032,0.01983 -0.001,0.02399 -0.0042,0.0042 -0.0071,-0.0032 -0.0066,-0.01643 z m 6.546506,-0.02504 c 6.43e-4,-0.01458 0.0036,-0.01755 0.0076,-0.0076 0.0036,0.009 0.0032,0.01983 -10e-4,0.02399 -0.0042,0.0042 -0.0071,-0.0032 -0.0066,-0.01643 z m 0.01251,-0.100137 c 6.44e-4,-0.01458 0.0036,-0.01755 0.0076,-0.0076 0.0036,0.009 0.0032,0.01983 -0.001,0.02399 -0.0042,0.0042 -0.0071,-0.0032 -0.0066,-0.01643 z m -6.584055,-0.0751 c 6.43e-4,-0.01458 0.0036,-0.01755 0.0076,-0.0076 0.0036,0.009 0.0032,0.01983 -10e-4,0.02399 -0.0042,0.0042 -0.0071,-0.0032 -0.0066,-0.01643 z m -1.191721,-2.680772 c -0.01557,-0.01985 -0.01513,-0.02029 0.0047,-0.0047 0.02085,0.01635 0.02748,0.02663 0.01718,0.02663 -0.0026,0 -0.01246,-0.0099 -0.02191,-0.02191 z m 9.001477,-0.03289 c 0,-0.0026 0.0099,-0.01245 0.02191,-0.02191 0.01985,-0.01557 0.0203,-0.01513 0.0047,0.0047 -0.01635,0.02085 -0.02663,0.02748 -0.02663,0.01718 z m -9.064063,-0.04221 c -0.01557,-0.01985 -0.01513,-0.0203 0.0047,-0.0047 0.01205,0.0095 0.02191,0.01931 0.02191,0.0219 0,0.0103 -0.01028,0.0037 -0.02663,-0.01718 z m 9.164201,-0.07197 c 0.01617,-0.01721 0.03221,-0.03129 0.03566,-0.03129 0.0034,0 -0.007,0.01408 -0.02314,0.03129 -0.01617,0.01721 -0.03221,0.03129 -0.03566,0.03129 -0.0034,0 0.007,-0.01408 0.02314,-0.03129 z m -9.257673,-0.03442 -0.02385,-0.02816 0.02816,0.02385 c 0.01549,0.01311 0.02816,0.02579 0.02816,0.02816 0,0.01002 -0.01007,0.0026 -0.03248,-0.02385 z m 9.407879,-0.128301 c 0.01617,-0.01721 0.03221,-0.03129 0.03566,-0.03129 0.0034,0 -0.007,0.01408 -0.02314,0.03129 -0.01617,0.01721 -0.03222,0.03129 -0.03566,0.03129 -0.0034,0 0.007,-0.01408 0.02314,-0.03129 z m -9.539068,-0.01565 -0.03035,-0.03442 0.03442,0.03035 c 0.01893,0.01669 0.03442,0.03218 0.03442,0.03442 0,0.0098 -0.01014,0.0018 -0.0385,-0.03035 z m 9.645464,-0.103267 c 0.01246,-0.01377 0.02547,-0.02504 0.02892,-0.02504 0.0034,0 -0.0039,0.01127 -0.0164,0.02504 -0.01246,0.01377 -0.02547,0.02504 -0.02891,0.02504 -0.0034,0 0.0039,-0.01127 0.0164,-0.02504 z m -9.746251,-0.0094 c -0.01557,-0.01985 -0.01513,-0.0203 0.0047,-0.0047 0.01205,0.0095 0.02191,0.01931 0.02191,0.02191 0,0.0103 -0.01028,0.0037 -0.02663,-0.01718 z m -0.0751,-0.08762 c -0.01557,-0.01985 -0.01513,-0.0203 0.0047,-0.0047 0.02085,0.01635 0.02748,0.02663 0.01718,0.02663 -0.0026,0 -0.01246,-0.0099 -0.02191,-0.0219 z m -0.06259,-0.0751 c -0.01557,-0.01985 -0.01513,-0.0203 0.0047,-0.0047 0.02085,0.01635 0.02748,0.02663 0.01718,0.02663 -0.0026,0 -0.01246,-0.0099 -0.0219,-0.0219 z m -1.36179,-3.064631 c 6.04e-4,-0.01458 0.0036,-0.01755 0.0076,-0.0076 0.0036,0.009 0.0032,0.01983 -9.91e-4,0.02399 -0.0042,0.0042 -0.0071,-0.0032 -0.0066,-0.01643 z m -0.02504,-0.175242 c 6.05e-4,-0.01458 0.0036,-0.01755 0.0076,-0.0076 0.0036,0.009 0.0032,0.01983 -9.9e-4,0.02399 -0.0042,0.0042 -0.0071,-0.0032 -0.0066,-0.01643 z m 12.805115,-0.01252 c 6.43e-4,-0.01458 0.0036,-0.01755 0.0076,-0.0076 0.0036,0.009 0.0032,0.01983 -0.001,0.02399 -0.0042,0.0042 -0.0071,-0.0032 -0.0066,-0.01643 z m 0.01251,-0.112655 c 6.43e-4,-0.01458 0.0036,-0.01755 0.0076,-0.0076 0.0036,0.009 0.0032,0.01983 -0.001,0.02399 -0.0042,0.0042 -0.0071,-0.0032 -0.0066,-0.01643 z M -77.01179,58.96419 c 0,-0.01721 0.0028,-0.02425 0.0063,-0.01565 0.0035,0.0086 0.0035,0.02269 0,0.03129 -0.0035,0.0086 -0.0063,0.0016 -0.0063,-0.01565 z m 12.855184,-0.01252 c 0,-0.01721 0.0028,-0.02425 0.0063,-0.01565 0.0035,0.0086 0.0035,0.02269 0,0.03129 -0.0035,0.0086 -0.0063,0.0016 -0.0063,-0.01565 z m -12.867237,-0.143953 c 2.57e-4,-0.02065 0.0031,-0.02759 0.0062,-0.01541 0.0032,0.01218 0.003,0.02908 -4.63e-4,0.03755 -0.0034,0.0085 -0.006,-0.0015 -0.0058,-0.02214 z m 12.880217,-0.02503 c 2.58e-4,-0.02065 0.0031,-0.02759 0.0062,-0.01541 0.0032,0.01218 0.003,0.02908 -5.15e-4,0.03755 -0.0034,0.0085 -0.006,-0.0015 -0.0058,-0.02214 z M -77.03478,58.513573 c 0,-0.04475 0.0023,-0.06305 0.005,-0.04068 0.0028,0.02237 0.0028,0.05899 0,0.08136 -0.0028,0.02237 -0.005,0.0041 -0.005,-0.04068 z m 12.906149,-0.137689 c 0,-0.09294 0.002,-0.130962 0.0044,-0.08449 0.0024,0.04647 0.0024,0.122513 0,0.168982 -0.0024,0.04647 -0.0044,0.0085 -0.0044,-0.08449 z m -12.906048,-0.143947 c 5e-5,-0.04819 0.0023,-0.06637 0.005,-0.0404 0.0027,0.02597 0.0027,0.0654 -1.01e-4,0.08762 -0.0028,0.02222 -0.005,0.001 -0.0049,-0.04722 z m 12.890604,-0.269121 c 0,-0.01721 0.0028,-0.02425 0.0063,-0.01565 0.0035,0.0086 0.0035,0.02269 0,0.03129 -0.0035,0.0086 -0.0063,0.0016 -0.0063,-0.01565 z m -12.880218,-0.02503 c 0,-0.01721 0.0028,-0.02425 0.0063,-0.01565 0.0035,0.0086 0.0035,0.02269 0,0.03129 -0.0035,0.0086 -0.0063,0.0016 -0.0063,-0.01565 z m 12.867701,-0.13769 c 0,-0.01721 0.0028,-0.02425 0.0063,-0.01564 0.0035,0.0086 0.0035,0.02269 0,0.03129 -0.0035,0.0086 -0.0063,0.0016 -0.0063,-0.01565 z m -12.856172,-0.01982 c 6.04e-4,-0.01458 0.0036,-0.01755 0.0076,-0.0076 0.0036,0.009 0.0032,0.01983 -9.9e-4,0.02399 -0.0042,0.0042 -0.0071,-0.0032 -0.0066,-0.01643 z m 12.842667,-0.112654 c 6.43e-4,-0.01458 0.0036,-0.01755 0.0076,-0.0076 0.0036,0.009 0.0032,0.01983 -0.001,0.02399 -0.0042,0.0042 -0.0071,-0.0032 -0.0066,-0.01643 z m -12.829162,-0.01773 c 0,-0.01721 0.0028,-0.02425 0.0063,-0.01565 0.0035,0.0086 0.0035,0.02269 0,0.03129 -0.0035,0.0086 -0.0063,0.0016 -0.0063,-0.01565 z m 12.816644,-0.08241 c 6.43e-4,-0.01458 0.0036,-0.01755 0.0076,-0.0076 0.0036,0.009 0.0032,0.01983 -0.001,0.02399 -0.0042,0.0042 -0.0071,-0.0032 -0.0066,-0.01643 z m -12.78008,-0.200276 c 6.04e-4,-0.01458 0.0036,-0.01755 0.0076,-0.0076 0.0036,0.009 0.0032,0.01983 -9.91e-4,0.02399 -0.0042,0.0042 -0.0071,-0.0032 -0.0066,-0.01643 z m 1.438491,-3.151763 c 0,-0.0026 0.0099,-0.01246 0.02191,-0.0219 0.01985,-0.01557 0.0203,-0.01513 0.0047,0.0047 -0.01635,0.02085 -0.02663,0.02748 -0.02663,0.01718 z m 9.793535,-0.07351 -0.02384,-0.02816 0.02817,0.02385 c 0.02647,0.02241 0.03386,0.03248 0.02384,0.03248 -0.0024,0 -0.01505,-0.01267 -0.02817,-0.02816 z m -9.699655,-0.03442 c 0.01246,-0.01377 0.02547,-0.02503 0.02891,-0.02503 0.0034,0 -0.0039,0.01127 -0.0164,0.02503 -0.01246,0.01377 -0.02547,0.02504 -0.02891,0.02504 -0.0034,0 0.0039,-0.01127 0.0164,-0.02504 z m 9.587402,-0.09075 -0.03676,-0.04068 0.04068,0.03676 c 0.03792,0.03427 0.04644,0.0446 0.03677,0.0446 -0.0022,0 -0.02046,-0.01831 -0.04068,-0.04068 z m -9.455971,-0.0532 c 0.02335,-0.02409 0.04528,-0.04381 0.04872,-0.04381 0.0034,0 -0.01285,0.01972 -0.0362,0.04381 -0.02335,0.0241 -0.04528,0.04381 -0.04872,0.04381 -0.0034,0 0.01285,-0.01972 0.0362,-0.04381 z m 0.306672,-0.306671 c 0.02689,-0.02754 0.05171,-0.05007 0.05515,-0.05007 0.0034,0 -0.01574,0.02253 -0.04263,0.05007 -0.02689,0.02754 -0.05171,0.05007 -0.05515,0.05007 -0.0034,0 0.01574,-0.02253 0.04263,-0.05007 z m 8.754847,-0.03442 -0.03035,-0.03442 0.03442,0.03034 c 0.03217,0.02836 0.04016,0.0385 0.03034,0.0385 -0.0022,0 -0.01773,-0.01549 -0.03442,-0.03442 z m -8.617158,-0.09075 c 0.01246,-0.01377 0.02547,-0.02503 0.02891,-0.02503 0.0034,0 -0.0039,0.01127 -0.0164,0.02503 -0.01246,0.01377 -0.02547,0.02504 -0.02892,0.02504 -0.0034,0 0.0039,-0.01127 0.0164,-0.02504 z m 8.491336,-0.0219 c -0.01557,-0.01985 -0.01513,-0.0203 0.0047,-0.0047 0.01205,0.0094 0.02191,0.0193 0.02191,0.0219 0,0.0103 -0.01028,0.0037 -0.02663,-0.01718 z m -8.409973,-0.04541 c 0,-0.0026 0.0099,-0.01246 0.0219,-0.0219 0.01985,-0.01557 0.0203,-0.01513 0.0047,0.0047 -0.01635,0.02085 -0.02663,0.02748 -0.02663,0.01718 z m 8.322352,-0.0297 c -0.01557,-0.01985 -0.01513,-0.0203 0.0047,-0.0047 0.01205,0.0094 0.02191,0.01931 0.02191,0.02191 0,0.0103 -0.01028,0.0037 -0.02663,-0.01718 z m -4.882465,-1.476195 c 0.009,-0.0036 0.01983,-0.0032 0.02399,9.91e-4 0.0042,0.0042 -0.0032,0.0071 -0.01643,0.0066 -0.01458,-6.05e-4 -0.01755,-0.0036 -0.0076,-0.0076 z m 0.112655,-0.01252 c 0.009,-0.0036 0.01983,-0.0032 0.02399,9.9e-4 0.0042,0.0042 -0.0032,0.0071 -0.01643,0.0066 -0.01458,-6.04e-4 -0.01755,-0.0036 -0.0076,-0.0076 z m 1.251722,0 c 0.009,-0.0036 0.01983,-0.0032 0.02399,9.9e-4 0.0042,0.0042 -0.0032,0.0071 -0.01643,0.0066 -0.01458,-6.04e-4 -0.01755,-0.0036 -0.0076,-0.0076 z m -1.102297,-0.01226 c 0.0086,-0.0035 0.02269,-0.0035 0.03129,0 0.0086,0.0035 0.0016,0.0063 -0.01565,0.0063 -0.01721,0 -0.02425,-0.0028 -0.01565,-0.0063 z m 0.951308,0 c 0.0086,-0.0035 0.02269,-0.0035 0.03129,0 0.0086,0.0035 0.0016,0.0063 -0.01565,0.0063 -0.01721,0 -0.02425,-0.0028 -0.01565,-0.0063 z m -0.725852,-0.01308 c 0.01557,-0.003 0.0381,-0.0029 0.05007,2.58e-4 0.01196,0.0031 -7.72e-4,0.0056 -0.02831,0.0054 -0.02754,-1.42e-4 -0.03733,-0.0027 -0.02176,-0.0057 z m 0.488025,2.5e-5 c 0.01549,-0.003 0.04084,-0.003 0.05633,0 0.01549,0.003 0.0028,0.0054 -0.02816,0.0054 -0.03098,0 -0.04365,-0.0024 -0.02816,-0.0054 z"
       id="path20281" /><path
       style="fill:#545454;stroke-width:0.0125172"
       d="m -71.408385,72.47424 c 0.009,-0.0036 0.01983,-0.0032 0.02399,0.001 0.0042,0.0042 -0.0032,0.0071 -0.01643,0.0066 -0.01458,-6.43e-4 -0.01755,-0.0036 -0.0076,-0.0076 z m 2.174084,-0.30438 c 0.01246,-0.01377 0.02547,-0.02504 0.02891,-0.02504 0.0034,0 -0.0039,0.01127 -0.0164,0.02504 -0.01246,0.01377 -0.02547,0.02503 -0.02891,0.02503 -0.0034,0 0.0039,-0.01127 0.0164,-0.02503 z m -2.723442,-0.02191 -0.03035,-0.03442 0.03442,0.03034 c 0.01893,0.01669 0.03442,0.03218 0.03442,0.03442 0,0.0098 -0.01014,0.0018 -0.0385,-0.03035 z m 2.842357,-0.109525 c 0.01617,-0.01721 0.03221,-0.03129 0.03566,-0.03129 0.0034,0 -0.007,0.01408 -0.02314,0.03129 -0.01617,0.01721 -0.03221,0.03129 -0.03566,0.03129 -0.0034,0 0.007,-0.01408 0.02314,-0.03129 z m -2.955012,-0.01565 -0.03035,-0.03442 0.03442,0.03034 c 0.01893,0.01669 0.03442,0.03218 0.03442,0.03442 0,0.0098 -0.01014,0.0018 -0.0385,-0.03035 z m 3.067666,-0.109525 c 0.01617,-0.01721 0.03221,-0.03129 0.03566,-0.03129 0.0034,0 -0.007,0.01408 -0.02314,0.03129 -0.01617,0.01721 -0.03222,0.03129 -0.03566,0.03129 -0.0034,0 0.007,-0.01408 0.02314,-0.03129 z m -3.186821,-0.02191 -0.02385,-0.02816 0.02816,0.02385 c 0.02647,0.02241 0.03386,0.03248 0.02385,0.03248 -0.0024,0 -0.01505,-0.01267 -0.02816,-0.02816 z m 3.305735,-0.109525 c 0.01246,-0.01377 0.02547,-0.02503 0.02891,-0.02503 0.0034,0 -0.0039,0.01127 -0.0164,0.02503 -0.01246,0.01377 -0.02547,0.02504 -0.02891,0.02504 -0.0034,0 0.0039,-0.01127 0.0164,-0.02504 z m -3.41839,-0.01565 -0.02385,-0.02816 0.02816,0.02384 c 0.01549,0.01311 0.02816,0.02579 0.02816,0.02816 0,0.01002 -0.01007,0.0026 -0.03248,-0.02385 z m -0.512805,-0.475654 -0.03676,-0.04068 0.04068,0.03677 c 0.02238,0.02022 0.04068,0.03853 0.04068,0.04068 0,0.0097 -0.01033,0.0012 -0.0446,-0.03676 z m 4.45066,0.0094 c 0.01617,-0.01721 0.03221,-0.03129 0.03566,-0.03129 0.0034,0 -0.007,0.01408 -0.02314,0.03129 -0.01617,0.01721 -0.03221,0.03129 -0.03566,0.03129 -0.0034,0 0.007,-0.01408 0.02314,-0.03129 z m -4.577894,-0.331707 c 0,-0.03098 0.0024,-0.04365 0.0054,-0.02816 0.003,0.01549 0.003,0.04084 0,0.05633 -0.003,0.01549 -0.0054,0.0028 -0.0054,-0.02816 z m 4.718486,0 c 0,-0.0241 0.0026,-0.03395 0.0057,-0.02191 0.0032,0.01205 0.0032,0.03176 0,0.04381 -0.0032,0.01205 -0.0057,0.0022 -0.0057,-0.02191 z m -4.621757,-0.291813 c 0,-0.0021 0.01831,-0.02046 0.04068,-0.04068 l 0.04068,-0.03676 -0.03677,0.04068 c -0.03427,0.03792 -0.0446,0.04644 -0.0446,0.03676 z m 4.480217,-0.04302 -0.03035,-0.03442 0.03442,0.03035 c 0.03217,0.02836 0.04016,0.0385 0.03035,0.0385 -0.0022,0 -0.01773,-0.01549 -0.03442,-0.03442 z m -4.645288,-0.41223 c 0.009,-0.0036 0.01983,-0.0032 0.02399,10e-4 0.0042,0.0042 -0.0032,0.0071 -0.01643,0.0066 -0.01458,-6.43e-4 -0.01755,-0.0036 -0.0076,-0.0076 z m 4.844164,0 c 0.009,-0.0036 0.01983,-0.0032 0.02399,10e-4 0.0042,0.0042 -0.0032,0.0071 -0.01643,0.0066 -0.01458,-6.43e-4 -0.01755,-0.0036 -0.0076,-0.0076 z m -5.124242,-0.132269 -0.03676,-0.04068 0.04068,0.03676 c 0.02237,0.02022 0.04068,0.03853 0.04068,0.04068 0,0.0097 -0.01033,0.0012 -0.0446,-0.03676 z m 5.376933,0.03676 c 0,-0.0022 0.01831,-0.02046 0.04068,-0.04068 l 0.04068,-0.03676 -0.03676,0.04068 c -0.03427,0.03792 -0.0446,0.04643 -0.0446,0.03676 z m -5.419955,-0.651705 c 0,-0.0026 0.0099,-0.01245 0.0219,-0.02191 0.01985,-0.01557 0.0203,-0.01513 0.0047,0.0047 -0.01635,0.02085 -0.02663,0.02748 -0.02663,0.01718 z m 5.450461,-0.04847 -0.03677,-0.04068 0.04068,0.03676 c 0.02237,0.02022 0.04068,0.03853 0.04068,0.04068 0,0.0097 -0.01033,0.0012 -0.0446,-0.03677 z m -5.139878,-0.130592 c 0.009,-0.0036 0.01983,-0.0032 0.02399,0.001 0.0042,0.0042 -0.0032,0.0071 -0.01643,0.0066 -0.01458,-6.43e-4 -0.01755,-0.0036 -0.0076,-0.0076 z m -0.756135,-0.457716 -0.02384,-0.02817 0.02816,0.02384 c 0.01549,0.01311 0.02816,0.02579 0.02816,0.02817 0,0.01002 -0.01007,0.0026 -0.03248,-0.02384 z m -0.129253,-0.279551 c 6.43e-4,-0.01458 0.0036,-0.01755 0.0076,-0.0076 0.0036,0.009 0.0032,0.01983 -0.001,0.02399 -0.0042,0.0042 -0.0071,-0.0032 -0.0066,-0.01643 z m 6.649065,-0.04277 c 0,-0.03098 0.0024,-0.04365 0.0054,-0.02816 0.003,0.01549 0.003,0.04084 0,0.05633 -0.003,0.01549 -0.0054,0.0028 -0.0054,-0.02816 z m -6.649065,-0.04485 c 6.43e-4,-0.01458 0.0036,-0.01755 0.0076,-0.0076 0.0036,0.009 0.0032,0.01983 -0.001,0.02399 -0.0042,0.0042 -0.0071,-0.0032 -0.0066,-0.01643 z m 1.873466,-0.427671 c 0.800319,-0.0018 2.109934,-0.0018 2.910253,0 0.80032,0.0018 0.145513,0.0032 -1.455126,0.0032 -1.60064,0 -2.255447,-0.0015 -1.455127,-0.0032 z m -1.051446,-0.349385 c 0.0086,-0.0035 0.02269,-0.0035 0.03129,0 0.0086,0.0035 0.0016,0.0063 -0.01565,0.0063 -0.01721,0 -0.02425,-0.0028 -0.01564,-0.0063 z m 4.970118,-2.57e-4 c 0.009,-0.0036 0.01983,-0.0032 0.02399,10e-4 0.0042,0.0042 -0.0032,0.0071 -0.01643,0.0066 -0.01458,-6.43e-4 -0.01755,-0.0036 -0.0076,-0.0076 z m -5.707102,-0.3388 c -0.01557,-0.01985 -0.01513,-0.0203 0.0047,-0.0047 0.02085,0.01635 0.02748,0.02663 0.01718,0.02663 -0.0026,0 -0.01245,-0.0099 -0.02191,-0.02191 z m 6.811952,-0.723912 c 6.43e-4,-0.01458 0.0036,-0.01755 0.0076,-0.0076 0.0036,0.009 0.0032,0.01983 -0.001,0.02399 -0.0042,0.0042 -0.0071,-0.0032 -0.0066,-0.01643 z m -7.158398,-0.386991 c 2.58e-4,-0.02065 0.0031,-0.02759 0.0062,-0.01541 0.0032,0.01218 0.003,0.02908 -5.15e-4,0.03755 -0.0034,0.0085 -0.006,-0.0015 -0.0058,-0.02214 z m 7.172367,-0.02503 c 2.57e-4,-0.02065 0.0031,-0.02759 0.0062,-0.01541 0.0032,0.01218 0.003,0.02908 -5.14e-4,0.03755 -0.0034,0.0085 -0.006,-0.0015 -0.0058,-0.02214 z m -7.186336,-0.163767 c 6.43e-4,-0.01458 0.0036,-0.01755 0.0076,-0.0076 0.0036,0.009 0.0032,0.01983 -0.001,0.02399 -0.0042,0.0042 -0.0071,-0.0032 -0.0066,-0.01643 z m -0.01251,-0.125173 c 6.43e-4,-0.01458 0.0036,-0.01755 0.0076,-0.0076 0.0036,0.009 0.0032,0.01983 -0.001,0.02399 -0.0042,0.0042 -0.0071,-0.0032 -0.0066,-0.01643 z m -4.910869,-2.479405 c 0.0086,-0.0035 0.02269,-0.0035 0.03129,0 0.0086,0.0035 0.0016,0.0063 -0.01565,0.0063 -0.01721,0 -0.02425,-0.0028 -0.01565,-0.0063 z m 17.017398,-3.86e-4 c 0.01218,-0.0032 0.02908,-0.003 0.03755,5.14e-4 0.0085,0.0034 -0.0015,0.006 -0.02214,0.0058 -0.02065,-2.58e-4 -0.02759,-0.0031 -0.01541,-0.0062 z m -17.128521,-0.05078 c -0.01557,-0.01985 -0.01513,-0.02029 0.0047,-0.0047 0.01205,0.0095 0.02191,0.01931 0.02191,0.0219 0,0.0103 -0.01028,0.0037 -0.02663,-0.01718 z m 17.250325,0.01718 c 0,-0.0026 0.0099,-0.01245 0.0219,-0.0219 0.01985,-0.01557 0.0203,-0.01513 0.0047,0.0047 -0.01635,0.02085 -0.02663,0.02748 -0.02663,0.01718 z m -3.842786,-0.200275 c 0,-0.0026 0.0099,-0.01246 0.0219,-0.02191 0.01985,-0.01557 0.0203,-0.01513 0.0047,0.0047 -0.01635,0.02085 -0.02663,0.02748 -0.02663,0.01718 z m -9.602304,-0.05473 c -0.01557,-0.01985 -0.01513,-0.02029 0.0047,-0.0047 0.02085,0.01635 0.02748,0.02663 0.01718,0.02663 -0.0026,0 -0.01246,-0.0099 -0.02191,-0.02191 z m 9.689925,-0.0446 c 0,-0.0022 0.0183,-0.02046 0.04068,-0.04068 l 0.04068,-0.03676 -0.03676,0.04068 c -0.03427,0.03792 -0.0446,0.04643 -0.0446,0.03676 z m -9.789413,-0.06806 -0.03035,-0.03442 0.03442,0.03034 c 0.01893,0.01669 0.03442,0.03218 0.03442,0.03442 0,0.0098 -0.01013,0.0018 -0.0385,-0.03035 z m 9.970912,-0.128301 c 0.01246,-0.01377 0.02547,-0.02504 0.02891,-0.02504 0.0034,0 -0.0039,0.01127 -0.0164,0.02504 -0.01246,0.01377 -0.02547,0.02504 -0.02892,0.02504 -0.0034,0 0.0039,-0.01127 0.0164,-0.02504 z m -10.102585,-0.01565 -0.02384,-0.02816 0.02816,0.02385 c 0.02647,0.02241 0.03386,0.03248 0.02385,0.03248 -0.0024,0 -0.01505,-0.01267 -0.02816,-0.02816 z m 10.183947,-0.0767 c 0,-0.0026 0.0099,-0.01245 0.02191,-0.02191 0.01985,-0.01557 0.02029,-0.01513 0.0047,0.0047 -0.01635,0.02085 -0.02663,0.02748 -0.02663,0.01718 z m -10.278234,-0.0297 c -0.01557,-0.01985 -0.01513,-0.0203 0.0047,-0.0047 0.02085,0.01635 0.02748,0.02663 0.01718,0.02663 -0.0026,0 -0.01246,-0.0099 -0.0219,-0.02191 z m -1.256383,-0.541371 c 0.01246,-0.01377 0.02547,-0.02503 0.02891,-0.02503 0.0034,0 -0.0039,0.01127 -0.0164,0.02503 -0.01246,0.01377 -0.02547,0.02504 -0.02891,0.02504 -0.0034,0 0.0039,-0.01127 0.0164,-0.02504 z m -0.128064,-0.284052 c 0.01218,-0.0032 0.02908,-0.003 0.03755,5.15e-4 0.0085,0.0034 -0.0015,0.006 -0.02214,0.0058 -0.02065,-2.58e-4 -0.02759,-0.0031 -0.01541,-0.0062 z m 13.055459,0 c 0.01218,-0.0032 0.02908,-0.003 0.03755,5.15e-4 0.0085,0.0034 -0.0015,0.006 -0.02214,0.0058 -0.02065,-2.58e-4 -0.02759,-0.0031 -0.01541,-0.0062 z m -13.283148,-3.00276 c 6.05e-4,-0.01458 0.0036,-0.01755 0.0076,-0.0076 0.0036,0.009 0.0032,0.01983 -9.9e-4,0.02399 -0.0042,0.0042 -0.0071,-0.0032 -0.0066,-0.01643 z m 13.531113,-0.01252 c 6.43e-4,-0.01458 0.0036,-0.01755 0.0076,-0.0076 0.0036,0.009 0.0032,0.01983 -0.001,0.02399 -0.0042,0.0042 -0.0071,-0.0032 -0.0066,-0.01643 z m -13.542642,-0.155423 c 0,-0.01721 0.0028,-0.02425 0.0063,-0.01564 0.0035,0.0086 0.0035,0.02269 0,0.03129 -0.0035,0.0086 -0.0063,0.0016 -0.0063,-0.01565 z m 13.556149,-0.02504 c 0,-0.01721 0.0028,-0.02425 0.0063,-0.01565 0.0035,0.0086 0.0035,0.02269 0,0.03129 -0.0035,0.0086 -0.0063,0.0016 -0.0063,-0.01565 z m -13.565605,-0.400551 c 0,-0.106709 0.0019,-0.150363 0.0043,-0.09701 0.0023,0.05336 0.0023,0.140662 0,0.194017 -0.0023,0.05335 -0.0043,0.0097 -0.0043,-0.09701 z m 13.580777,0 c 0,-0.07229 0.0021,-0.101858 0.0046,-0.06572 0.0025,0.03614 0.0025,0.09529 0,0.131431 -0.0025,0.03614 -0.0046,0.0066 -0.0046,-0.06571 z m -16.789234,-0.0073 c 6.04e-4,-0.01458 0.0036,-0.01755 0.0076,-0.0076 0.0036,0.009 0.0032,0.01983 -9.9e-4,0.02399 -0.0042,0.0042 -0.0071,-0.0032 -0.0066,-0.01643 z m 2.575962,-0.114742 c -0.01557,-0.01985 -0.01513,-0.02029 0.0047,-0.0047 0.01205,0.0095 0.0219,0.01931 0.0219,0.02191 0,0.0103 -0.01028,0.0037 -0.02663,-0.01718 z m 14.821984,0.01718 c 0,-0.0026 0.0099,-0.01245 0.02191,-0.02191 0.01985,-0.01557 0.0203,-0.01513 0.0047,0.0047 -0.01635,0.02085 -0.02663,0.02748 -0.02663,0.01718 z m -16.67607,-0.06724 c 0.325291,-0.0019 0.857586,-0.0019 1.182877,0 0.325291,0.0019 0.05914,0.0034 -0.591439,0.0034 -0.650582,0 -0.91673,-0.0015 -0.591438,-0.0034 z m 17.36859,0 c 0.329255,-0.0019 0.864366,-0.0019 1.189136,10e-7 0.324769,0.0019 0.05538,0.0034 -0.598646,0.0034 -0.654025,-10e-7 -0.919745,-0.0015 -0.59049,-0.0034 z m -1.316409,-0.240954 c 0,-0.01721 0.0028,-0.02425 0.0063,-0.01565 0.0035,0.0086 0.0035,0.02269 0,0.03129 -0.0035,0.0086 -0.0063,0.0016 -0.0063,-0.01565 z m -13.556149,-0.02503 c 0,-0.01721 0.0028,-0.02425 0.0063,-0.01565 0.0035,0.0086 0.0035,0.02269 0,0.03129 -0.0035,0.0086 -0.0063,0.0016 -0.0063,-0.01565 z m 13.542642,-0.14499 c 6.43e-4,-0.01458 0.0036,-0.01755 0.0076,-0.0076 0.0036,0.009 0.0032,0.01983 -10e-4,0.02399 -0.0042,0.0042 -0.0071,-0.0032 -0.0066,-0.01643 z m -13.531113,-0.02504 c 6.05e-4,-0.01458 0.0036,-0.01755 0.0076,-0.0076 0.0036,0.009 0.0032,0.01983 -9.9e-4,0.02399 -0.0042,0.0042 -0.0071,-0.0032 -0.0066,-0.01643 z m 0.355753,-3.0469 c 0.01246,-0.01377 0.02547,-0.02503 0.02891,-0.02503 0.0034,0 -0.0039,0.01127 -0.0164,0.02503 -0.01246,0.01377 -0.02547,0.02504 -0.02891,0.02504 -0.0034,0 0.0039,-0.01127 0.0164,-0.02504 z m 11.608123,-0.697835 c -0.01557,-0.01985 -0.01513,-0.0203 0.0047,-0.0047 0.01205,0.0094 0.02191,0.01931 0.02191,0.02191 0,0.0103 -0.01028,0.0037 -0.02663,-0.01718 z m -0.0751,-0.08762 c -0.01557,-0.01985 -0.01513,-0.0203 0.0047,-0.0047 0.01205,0.0094 0.02191,0.01931 0.02191,0.0219 0,0.0103 -0.01028,0.0037 -0.02663,-0.01718 z M -75.7057,53.907241 c 0.01246,-0.01377 0.02547,-0.02504 0.02891,-0.02504 0.0034,0 -0.0039,0.01127 -0.0164,0.02504 -0.01246,0.01377 -0.02547,0.02503 -0.02891,0.02503 -0.0034,0 0.0039,-0.01127 0.0164,-0.02503 z m 10.144258,-0.08449 -0.03034,-0.03442 0.03442,0.03035 c 0.03217,0.02836 0.04016,0.0385 0.03034,0.0385 -0.0022,0 -0.01773,-0.01549 -0.03442,-0.03442 z m -10.037861,-0.03442 c 0.01617,-0.01721 0.03221,-0.03129 0.03566,-0.03129 0.0034,0 -0.007,0.01408 -0.02314,0.03129 -0.01617,0.01721 -0.03222,0.03129 -0.03566,0.03129 -0.0034,0 0.007,-0.01408 0.02314,-0.03129 z m 9.800734,-0.215922 -0.118665,-0.122043 0.122043,0.118667 c 0.113352,0.110216 0.127737,0.125419 0.118665,0.125419 -0.0019,0 -0.05678,-0.05492 -0.122043,-0.122043 z m -13.419808,0 c -0.01557,-0.01985 -0.01513,-0.02029 0.0047,-0.0047 0.01205,0.0094 0.02191,0.01931 0.02191,0.02191 0,0.0103 -0.01028,0.0037 -0.02663,-0.01718 z m 17.250325,0.01718 c 0,-0.0026 0.0099,-0.01246 0.0219,-0.0219 0.01985,-0.01557 0.0203,-0.01513 0.0047,0.0047 -0.01635,0.02085 -0.02663,0.02748 -0.02663,0.01718 z m -13.205666,-0.226842 c 0.01617,-0.01721 0.03221,-0.03129 0.03566,-0.03129 0.0034,0 -0.007,0.01408 -0.02314,0.03129 -0.01617,0.01721 -0.03221,0.03129 -0.03566,0.03129 -0.0034,0 0.007,-0.01408 0.02314,-0.03129 z m 9.124105,-0.02816 -0.03035,-0.03442 0.03442,0.03035 c 0.01893,0.01669 0.03442,0.03218 0.03442,0.03442 0,0.0098 -0.01014,0.0018 -0.0385,-0.03035 z m -9.01145,-0.07044 c 0,-0.0026 0.0099,-0.01246 0.02191,-0.02191 0.01985,-0.01557 0.0203,-0.01513 0.0047,0.0047 -0.01635,0.02085 -0.02663,0.02748 -0.02663,0.01718 z m 8.898146,-0.0297 c -0.01557,-0.01985 -0.01513,-0.0203 0.0047,-0.0047 0.01205,0.0094 0.02191,0.01931 0.02191,0.0219 0,0.0103 -0.01028,0.0037 -0.02663,-0.01718 z m -8.810525,-0.04541 c 0,-0.0026 0.0099,-0.01246 0.0219,-0.0219 0.01985,-0.01557 0.0203,-0.01513 0.0047,0.0047 -0.01635,0.02085 -0.02663,0.02748 -0.02663,0.01718 z m 0.603955,-1.180521 c 0.01205,-0.0031 0.03176,-0.0031 0.04381,0 0.01205,0.0031 0.0022,0.0057 -0.0219,0.0057 -0.0241,0 -0.03395,-0.0026 -0.02191,-0.0057 z m 7.535366,0 c 0.01205,-0.0031 0.03176,-0.0031 0.04381,0 0.01205,0.0031 0.0022,0.0057 -0.02191,0.0057 -0.0241,0 -0.03395,-0.0026 -0.02191,-0.0057 z m -7.413323,-0.03365 c 0,-0.0026 0.0099,-0.01246 0.02191,-0.02191 0.01985,-0.01557 0.0203,-0.01513 0.0047,0.0047 -0.01635,0.02085 -0.02663,0.02748 -0.02663,0.01718 z m 3.02682,-0.366824 c 0.009,-0.0036 0.01983,-0.0032 0.02399,9.91e-4 0.0042,0.0042 -0.0032,0.0071 -0.01643,0.0066 -0.01458,-6.04e-4 -0.01755,-0.0036 -0.0076,-0.0076 z m 1.264239,0 c 0.009,-0.0036 0.01983,-0.0032 0.02399,9.91e-4 0.0042,0.0042 -0.0032,0.0071 -0.01643,0.0066 -0.01458,-6.04e-4 -0.01755,-0.0036 -0.0076,-0.0076 z m -1.114814,-0.01226 c 0.0086,-0.0035 0.02269,-0.0035 0.03129,0 0.0086,0.0035 0.0016,0.0063 -0.01565,0.0063 -0.01721,0 -0.02425,-0.0028 -0.01565,-0.0063 z m 0.951308,0 c 0.0086,-0.0035 0.02269,-0.0035 0.03129,0 0.0086,0.0035 0.0016,0.0063 -0.01565,0.0063 -0.01721,0 -0.02425,-0.0028 -0.01565,-0.0063 z m -0.713481,-0.01306 c 0.01549,-0.003 0.04084,-0.003 0.05633,0 0.01549,0.003 0.0028,0.0054 -0.02816,0.0054 -0.03098,0 -0.04365,-0.0024 -0.02816,-0.0054 z m 0.45062,0 c 0.01549,-0.003 0.04084,-0.003 0.05633,0 0.01549,0.003 0.0028,0.0054 -0.02816,0.0054 -0.03098,0 -0.04365,-0.0024 -0.02816,-0.0054 z m -5.125564,-1.889941 c 0.01218,-0.0032 0.02908,-0.003 0.03755,4.63e-4 0.0085,0.0034 -0.0015,0.006 -0.02214,0.0058 -0.02065,-2.57e-4 -0.02759,-0.0031 -0.01541,-0.0062 z m 9.826017,0 c 0.01218,-0.0032 0.02908,-0.003 0.03755,4.63e-4 0.0085,0.0034 -0.0015,0.006 -0.02214,0.0058 -0.02065,-2.57e-4 -0.02759,-0.0031 -0.01541,-0.0062 z"
       id="path20279" /><path
       style="fill:#000000;stroke-width:0.0125172"
       d="m -71.439048,72.469405 c -0.09748,-0.01673 -0.215697,-0.0635 -0.297139,-0.117561 -0.04914,-0.03262 -0.160857,-0.145477 -0.340225,-0.343715 l -0.267059,-0.295148 0.881785,-0.0032 c 0.484981,-0.0018 1.278223,-0.0018 1.762757,0 l 0.880973,0.0032 -0.264501,0.292235 c -0.291437,0.321996 -0.356035,0.37538 -0.5276,0.436011 l -0.0999,0.03531 -0.832395,0.002 c -0.457817,10e-4 -0.861332,-0.003 -0.896698,-0.0091 z m -1.151336,-1.049939 c -0.07882,-0.01882 -0.155526,-0.06671 -0.22221,-0.138737 -0.08867,-0.09577 -0.120545,-0.178411 -0.120545,-0.312522 0,-0.145244 0.03231,-0.222323 0.137297,-0.327495 0.07254,-0.07267 0.09444,-0.0868 0.170127,-0.109735 l 0.08687,-0.02632 1.983978,0.0033 1.98398,0.0033 0.07789,0.03598 c 0.09149,0.04226 0.191642,0.141289 0.232614,0.230004 0.03957,0.08567 0.0398,0.295645 3.86e-4,0.380855 -0.03147,0.06809 -0.116198,0.164238 -0.180695,0.205039 -0.113308,0.07168 -0.0035,0.06825 -2.144636,0.06686 -1.081334,-6.43e-4 -1.98362,-0.0055 -2.005081,-0.0106 z m -0.447268,-1.202797 c -0.158577,-0.02689 -0.312227,-0.158898 -0.3582,-0.307741 -0.08622,-0.279143 0.07468,-0.552389 0.355883,-0.604373 0.10404,-0.01923 4.816095,-0.01923 4.920133,0 0.04063,0.0075 0.09617,0.02503 0.123425,0.03894 0.08236,0.04202 0.176093,0.140487 0.215373,0.226262 0.0308,0.06726 0.03567,0.09326 0.03567,0.190542 0,0.09753 -0.0048,0.123217 -0.036,0.191289 -0.0457,0.09982 -0.15218,0.201537 -0.25397,0.242623 l -0.07241,0.02922 -2.434599,0.0018 c -1.339029,0.001 -2.461916,-0.0029 -2.495302,-0.0085 z m -0.506045,-1.251995 c -0.132966,-0.02621 -0.278859,-0.152314 -0.328589,-0.284031 -0.03066,-0.08122 -0.03696,-0.215587 -0.01392,-0.297242 0.03847,-0.136373 0.1489,-0.255275 0.284049,-0.30584 l 0.06955,-0.02602 2.969034,0.0032 2.969034,0.0032 0.0713,0.03342 c 0.09096,0.04264 0.178083,0.12976 0.220719,0.22072 0.02964,0.06323 0.0334,0.08619 0.0332,0.202735 -1.28e-4,0.11204 -0.0045,0.14014 -0.02934,0.190467 -0.03913,0.07932 -0.117024,0.16569 -0.18575,0.205965 -0.11888,0.06967 0.03635,0.06641 -3.101748,0.06514 -1.597198,-6.43e-4 -2.928089,-0.0059 -2.957537,-0.01173 z m 0.4228,-1.276229 c -0.265188,-0.03185 -0.500856,-0.14681 -0.689398,-0.336292 -0.246371,-0.247598 -0.349531,-0.515599 -0.349531,-0.908059 0,-0.71317 -0.176811,-1.470719 -0.499777,-2.141307 -0.231119,-0.479881 -0.50025,-0.874043 -0.887867,-1.300352 -0.199795,-0.219738 -0.342396,-0.390664 -0.481568,-0.57723 -0.664816,-0.891207 -1.103515,-1.946173 -1.264861,-3.041685 -0.05676,-0.385391 -0.06408,-0.501176 -0.06408,-1.013895 0,-0.512717 0.0073,-0.628503 0.06408,-1.013894 0.184588,-1.253323 0.705713,-2.393164 1.553732,-3.398425 0.165487,-0.196171 0.56126,-0.590236 0.766722,-0.76341 0.855647,-0.72119 1.829075,-1.20763 2.891522,-1.44495 0.975446,-0.217886 1.997836,-0.220265 2.962616,-0.0069 1.283423,0.283844 2.439905,0.932466 3.383694,1.897771 1.145932,1.172056 1.809817,2.642269 1.928394,4.270529 0.01946,0.267232 0.0089,0.907125 -0.01918,1.166495 -0.162737,1.501055 -0.776428,2.838221 -1.815352,3.955441 -0.601103,0.646407 -0.997738,1.377046 -1.212923,2.234325 -0.08575,0.34161 -0.129919,0.683959 -0.14535,1.126549 -0.0086,0.247127 -0.01622,0.333286 -0.03616,0.40973 -0.112152,0.429993 -0.420426,0.736201 -0.864889,0.859091 l -0.119057,0.03292 -2.509703,0.0017 c -1.380336,9e-4 -2.546316,-0.0027 -2.591064,-0.0081 z m 5.188388,-0.360726 c 0.246677,-0.08241 0.44203,-0.263533 0.537416,-0.498278 0.04289,-0.105552 0.05495,-0.198577 0.06306,-0.486346 0.0074,-0.262815 0.0077,-0.266747 0.03838,-0.525724 0.09554,-0.80618 0.395955,-1.629511 0.835809,-2.290652 0.179208,-0.269365 0.349037,-0.480077 0.677178,-0.840195 0.441905,-0.484966 0.849792,-1.115997 1.115552,-1.725834 0.305151,-0.700232 0.475767,-1.412395 0.530786,-2.215548 0.01028,-0.150052 0.0071,-0.731466 -0.0045,-0.826136 -0.0034,-0.02754 -0.0094,-0.09231 -0.01344,-0.143948 -0.004,-0.05163 -0.02107,-0.190007 -0.0379,-0.307496 -0.09514,-0.664061 -0.279589,-1.269193 -0.568716,-1.865818 -0.322453,-0.665401 -0.703727,-1.205137 -1.226506,-1.736257 -0.344675,-0.350173 -0.637599,-0.595853 -1.008329,-0.8457 -0.950691,-0.640701 -1.97936,-0.998648 -3.129304,-1.088908 -0.207247,-0.01627 -0.749934,-0.01277 -0.976344,0.0063 -1.367669,0.115136 -2.571984,0.610149 -3.636946,1.494907 -0.198653,0.165038 -0.61898,0.585531 -0.78709,0.787399 -0.533252,0.640335 -0.922112,1.330917 -1.177461,2.09107 -0.233327,0.694596 -0.339618,1.37804 -0.330939,2.127927 0.0051,0.439894 0.03253,0.730425 0.106519,1.127922 0.105191,0.565101 0.275957,1.082652 0.530263,1.607091 0.142394,0.293651 0.248223,0.481233 0.413122,0.732257 0.207955,0.316568 0.38266,0.540443 0.664229,0.851171 0.193072,0.213065 0.263955,0.297389 0.394585,0.469395 0.438823,0.577825 0.767526,1.269475 0.943846,1.98602 0.06464,0.262695 0.101099,0.489014 0.138805,0.861648 0.0031,0.03098 0.0093,0.171799 0.01371,0.312931 0.0092,0.293638 0.02703,0.387154 0.101163,0.529484 0.0704,0.135179 0.228081,0.288199 0.366834,0.356 0.195639,0.0956 -0.0098,0.08925 2.810115,0.0868 l 2.528479,-0.0022 z m -11.273229,-3.930958 c -0.04195,-0.04195 -0.0486,-0.05624 -0.0486,-0.104545 0,-0.03759 0.0092,-0.06934 0.02816,-0.09675 0.02181,-0.03159 0.257757,-0.173272 1.045369,-0.627711 0.964237,-0.556349 1.020404,-0.586911 1.078649,-0.586911 0.04749,0 0.07,0.0072 0.09912,0.0317 0.076,0.06395 0.08059,0.174104 0.01004,0.240811 -0.02175,0.02056 -0.490067,0.297177 -1.040708,0.614694 -0.946798,0.545956 -1.004488,0.577307 -1.062307,0.577307 -0.05433,0 -0.06655,-0.0054 -0.109736,-0.0486 z m 16.072874,-0.532211 c -0.55381,-0.319444 -1.022187,-0.595576 -1.040836,-0.613624 -0.06486,-0.06276 -0.05679,-0.176351 0.01693,-0.23838 0.0288,-0.02423 0.05175,-0.0317 0.09739,-0.0317 0.06728,0 -0.04653,-0.0626 1.327774,0.730246 0.850004,0.49037 0.832988,0.478176 0.822603,0.589545 -0.0048,0.0513 -0.01346,0.06886 -0.051,0.103267 -0.03813,0.03494 -0.05472,0.04146 -0.105585,0.04146 -0.05679,0 -0.119797,-0.03429 -1.067277,-0.580808 z m -17.356085,-4.349951 c -0.02157,-0.01315 -0.04833,-0.03692 -0.05946,-0.05281 -0.02549,-0.03639 -0.02613,-0.125828 -0.0012,-0.173939 0.04059,-0.07849 -0.02523,-0.07469 1.294882,-0.07469 h 1.202458 l 0.04524,0.04146 c 0.05851,0.05362 0.07115,0.140828 0.02992,0.206512 -0.05081,0.08096 0.0072,0.07748 -1.292424,0.07743 -1.139665,0 -1.181495,-9e-4 -1.21937,-0.02396 z m 17.372686,0.0055 c -0.05387,-0.02342 -0.09089,-0.08653 -0.09095,-0.155025 0,-0.04685 0.0069,-0.06163 0.04855,-0.103268 l 0.0486,-0.0486 1.206255,3.86e-4 c 0.957012,3.86e-4 1.212231,0.0038 1.235172,0.01649 0.108651,0.06029 0.09844,0.242561 -0.01627,0.290492 -0.0636,0.02657 -2.370158,0.02607 -2.431351,-5.15e-4 z m -14.07273,-3.771896 c -0.0241,-0.01336 -0.480349,-0.275961 -1.013895,-0.583564 -0.600271,-0.346072 -0.985593,-0.575623 -1.010766,-0.60215 -0.122852,-0.129466 0.04017,-0.33065 0.200898,-0.247933 0.120087,0.0618 1.997257,1.150792 2.021119,1.172501 0.04135,0.03762 0.05943,0.107567 0.04168,0.161332 -0.03397,0.102929 -0.147725,0.150429 -0.239038,0.09981 z m 13.056232,-1.01e-4 c -0.04592,-0.02463 -0.08839,-0.09042 -0.08839,-0.136929 0,-0.03945 0.02918,-0.105063 0.05773,-0.129786 0.013,-0.01126 0.474252,-0.280896 1.02501,-0.599199 1.087043,-0.628242 1.06767,-0.618767 1.154106,-0.564461 0.08778,0.05515 0.104628,0.182642 0.03327,0.251743 -0.02831,0.02742 -1.869211,1.099117 -2.028533,1.180933 -0.05211,0.02676 -0.100347,0.02604 -0.153185,-0.0023 z m -10.30649,-2.765406 c -0.02589,-0.016 -0.191084,-0.291233 -0.617891,-1.029476 -0.320405,-0.5542 -0.588466,-1.025854 -0.595692,-1.048121 -0.01804,-0.05559 0.0058,-0.130209 0.05471,-0.171385 0.07155,-0.06021 0.195884,-0.03719 0.246952,0.04571 0.01389,0.02254 0.282393,0.485971 0.596686,1.029844 l 0.57144,0.988861 -0.0056,0.06181 c -0.0046,0.05144 -0.01314,0.06876 -0.05079,0.103267 -0.03801,0.03484 -0.05476,0.04145 -0.104878,0.04139 -0.03478,-3.8e-5 -0.07437,-0.0092 -0.09498,-0.0219 z m 7.537819,9e-4 c -0.07071,-0.04388 -0.09394,-0.140706 -0.05292,-0.220503 0.0948,-0.184391 1.154149,-2.000557 1.182427,-2.027168 0.0306,-0.0288 0.04764,-0.03442 0.104266,-0.03442 0.05417,0 0.07521,0.0063 0.105361,0.0317 0.04484,0.03773 0.06953,0.104136 0.05808,0.15624 -0.006,0.02735 -1.05914,1.869962 -1.172636,2.051696 -0.03797,0.06081 -0.158352,0.08356 -0.224587,0.04245 z m -3.750197,-0.998864 c -0.02224,-0.0097 -0.05179,-0.0362 -0.06567,-0.05897 -0.02483,-0.04073 -0.02523,-0.06032 -0.02528,-1.234276 0,-1.288772 -0.0026,-1.237553 0.06521,-1.282022 0.07817,-0.05122 0.18807,-0.02961 0.234914,0.04618 0.02489,0.04028 0.02527,0.05892 0.02523,1.234812 0,1.175424 -3.86e-4,1.194559 -0.02531,1.235351 -0.02605,0.04273 -0.08996,0.07785 -0.140096,0.07699 -0.01571,-2.7e-4 -0.04676,-0.0084 -0.069,-0.01807 z"
       id="path20277" /></g></svg>
